<svg xmlns="http://www.w3.org/2000/svg" xmlns:xlink="http://www.w3.org/1999/xlink" width="300" zoomAndPan="magnify" viewBox="0 0 224.87999 74.999997" height="100" preserveAspectRatio="xMidYMid meet" version="1.0"><defs><g/><clipPath id="9878954b16"><path d="M 3.773438 12.632812 L 69.457031 12.632812 L 69.457031 53 L 3.773438 53 Z M 3.773438 12.632812 " clip-rule="nonzero"/></clipPath><clipPath id="36bf4df617"><path d="M 29 42 L 56 42 L 56 48.625 L 29 48.625 Z M 29 42 " clip-rule="nonzero"/></clipPath><clipPath id="0f88555b9f"><path d="M 28.683594 31 L 55 31 L 55 38 L 28.683594 38 Z M 28.683594 31 " clip-rule="nonzero"/></clipPath><clipPath id="bc5f312792"><path d="M 54 18.082031 L 63.824219 18.082031 L 63.824219 48.625 L 54 48.625 Z M 54 18.082031 " clip-rule="nonzero"/></clipPath><clipPath id="ee6090908a"><path d="M 21 30 L 28 30 L 28 48.539062 L 21 48.539062 Z M 21 30 " clip-rule="nonzero"/></clipPath><clipPath id="f667499b1d"><path d="M 15 25.21875 L 22 25.21875 L 22 48.539062 L 15 48.539062 Z M 15 25.21875 " clip-rule="nonzero"/></clipPath><clipPath id="3753d37919"><path d="M 13.164062 48 L 29.800781 48 L 29.800781 48.539062 L 13.164062 48.539062 Z M 13.164062 48 " clip-rule="nonzero"/></clipPath><clipPath id="0a9964c4e9"><path d="M 20.660156 54.625 L 28.542969 54.625 L 28.542969 62.507812 L 20.660156 62.507812 Z M 20.660156 54.625 " clip-rule="nonzero"/></clipPath><clipPath id="45ba31a37a"><path d="M 44.824219 54.625 L 52.707031 54.625 L 52.707031 62.507812 L 44.824219 62.507812 Z M 44.824219 54.625 " clip-rule="nonzero"/></clipPath></defs><g clip-path="url(#9878954b16)"><path fill="#231f20" d="M 63.847656 50.195312 L 14.175781 50.195312 L 14.175781 12.921875 L 3.773438 12.921875 L 3.773438 15.660156 L 11.433594 15.660156 L 11.433594 52.800781 L 65.765625 52.800781 L 69.457031 42.519531 L 66.992188 41.558594 L 63.847656 50.195312 " fill-opacity="1" fill-rule="nonzero"/></g><g clip-path="url(#36bf4df617)"><path fill="#54195a" d="M 55.757812 48.628906 L 29.449219 48.628906 L 29.449219 42.210938 L 55.757812 42.210938 L 55.757812 48.628906 " fill-opacity="1" fill-rule="nonzero"/></g><path fill="#fde3b7" d="M 55.824219 47.492188 L 30.789062 47.492188 L 30.789062 43.351562 L 55.824219 43.351562 L 55.824219 47.492188 " fill-opacity="1" fill-rule="nonzero"/><path stroke-linecap="butt" transform="matrix(0.013962, 0, 0, -0.0139342, 16.57024, 62.978209)" fill="none" stroke-linejoin="miter" d="M 2811.479635 1354.701754 L 1018.391807 1354.701754 " stroke="#ddbc8e" stroke-width="10.334" stroke-opacity="1" stroke-miterlimit="10"/><path stroke-linecap="butt" transform="matrix(0.013962, 0, 0, -0.0139342, 16.57024, 62.978209)" fill="none" stroke-linejoin="miter" d="M 2811.479635 1293.027833 L 1018.391807 1293.027833 " stroke="#ddbc8e" stroke-width="10.334" stroke-opacity="1" stroke-miterlimit="10"/><path stroke-linecap="butt" transform="matrix(0.013962, 0, 0, -0.0139342, 16.57024, 62.978209)" fill="none" stroke-linejoin="miter" d="M 2811.479635 1231.634249 L 1018.391807 1231.634249 " stroke="#ddbc8e" stroke-width="10.334" stroke-opacity="1" stroke-miterlimit="10"/><path stroke-linecap="butt" transform="matrix(0.013962, 0, 0, -0.0139342, 16.57024, 62.978209)" fill="none" stroke-linejoin="miter" d="M 2811.479635 1169.960328 L 1018.391807 1169.960328 " stroke="#ddbc8e" stroke-width="10.334" stroke-opacity="1" stroke-miterlimit="10"/><g clip-path="url(#0f88555b9f)"><path fill="#f9ad30" d="M 54.066406 37.453125 L 28.726562 37.453125 L 28.730469 31.621094 L 54.066406 31.621094 L 54.066406 37.453125 " fill-opacity="1" fill-rule="nonzero"/></g><path fill="#fde3b7" d="M 54.125 36.417969 L 29.949219 36.417969 L 29.945312 32.65625 L 54.125 32.65625 L 54.125 36.417969 " fill-opacity="1" fill-rule="nonzero"/><path stroke-linecap="butt" transform="matrix(0.013962, 0, 0, -0.0139342, 16.57024, 62.978209)" fill="none" stroke-linejoin="miter" d="M 2689.776842 2127.027444 L 958.239851 2127.027444 " stroke="#ddbc8e" stroke-width="9.3934" stroke-opacity="1" stroke-miterlimit="10"/><path stroke-linecap="butt" transform="matrix(0.013962, 0, 0, -0.0139342, 16.57024, 62.978209)" fill="none" stroke-linejoin="miter" d="M 2689.776842 2070.960243 L 958.239851 2070.960243 " stroke="#ddbc8e" stroke-width="9.3934" stroke-opacity="1" stroke-miterlimit="10"/><path stroke-linecap="butt" transform="matrix(0.013962, 0, 0, -0.0139342, 16.57024, 62.978209)" fill="none" stroke-linejoin="miter" d="M 2689.776842 2015.173379 L 958.239851 2015.173379 " stroke="#ddbc8e" stroke-width="9.3934" stroke-opacity="1" stroke-miterlimit="10"/><path stroke-linecap="butt" transform="matrix(0.013962, 0, 0, -0.0139342, 16.57024, 62.978209)" fill="none" stroke-linejoin="miter" d="M 2689.776842 1959.106178 L 958.239851 1959.106178 " stroke="#ddbc8e" stroke-width="9.3934" stroke-opacity="1" stroke-miterlimit="10"/><path fill="#0daecc" d="M 52.183594 42.355469 L 30.671875 42.355469 L 30.671875 37.402344 L 52.183594 37.402344 L 52.183594 42.355469 " fill-opacity="1" fill-rule="nonzero"/><path fill="#fde3b7" d="M 52.234375 41.476562 L 31.707031 41.476562 L 31.707031 38.28125 L 52.234375 38.28125 L 52.234375 41.476562 " fill-opacity="1" fill-rule="nonzero"/><path fill="#d5204a" d="M 32.945312 39.527344 L 32.945312 42.019531 L 34.042969 41.480469 L 35.144531 42.019531 L 35.144531 39.527344 L 32.945312 39.527344 " fill-opacity="1" fill-rule="nonzero"/><path fill="#d5204a" d="M 56.929688 31.621094 L 35.417969 31.621094 L 35.417969 26.671875 L 56.929688 26.671875 L 56.929688 31.621094 " fill-opacity="1" fill-rule="nonzero"/><path fill="#fde3b7" d="M 56.980469 30.742188 L 36.453125 30.742188 L 36.453125 27.546875 L 56.980469 27.546875 L 56.980469 30.742188 " fill-opacity="1" fill-rule="nonzero"/><path fill="#f9ad30" d="M 37.6875 28.792969 L 37.6875 31.285156 L 38.789062 30.746094 L 39.890625 31.285156 L 39.890625 28.792969 L 37.6875 28.792969 " fill-opacity="1" fill-rule="nonzero"/><g clip-path="url(#bc5f312792)"><path fill="#3c0514" d="M 63.777344 47.992188 L 58.03125 48.597656 L 54.859375 18.6875 L 60.605469 18.078125 L 63.777344 47.992188 " fill-opacity="1" fill-rule="nonzero"/></g><path fill="#fde3b7" d="M 60.96875 21.511719 L 55.222656 22.121094 L 55.046875 20.441406 L 60.789062 19.832031 L 60.96875 21.511719 " fill-opacity="1" fill-rule="nonzero"/><path fill="#fde3b7" d="M 60.757812 31.367188 L 57.5 31.710938 L 56.875 25.804688 L 60.128906 25.460938 L 60.757812 31.367188 " fill-opacity="1" fill-rule="nonzero"/><path fill="#fde3b7" d="M 61.171875 23.421875 L 55.425781 24.03125 L 55.320312 23.042969 L 61.066406 22.433594 L 61.171875 23.421875 " fill-opacity="1" fill-rule="nonzero"/><g clip-path="url(#ee6090908a)"><path fill="#d5204a" d="M 21.542969 49.015625 L 27.542969 49.015625 L 27.542969 30.421875 L 21.542969 30.421875 L 21.542969 49.015625 " fill-opacity="1" fill-rule="nonzero"/></g><path fill="#fde3b7" d="M 21.542969 33.429688 L 27.542969 33.429688 L 27.542969 32.332031 L 21.542969 32.332031 L 21.542969 33.429688 " fill-opacity="1" fill-rule="nonzero"/><path fill="#fde3b7" d="M 22.597656 35.027344 L 26.488281 35.027344 L 26.488281 34.152344 L 22.597656 34.152344 L 22.597656 35.027344 " fill-opacity="1" fill-rule="nonzero"/><path fill="#fde3b7" d="M 22.597656 46.6875 L 26.488281 46.6875 L 26.488281 40.261719 L 22.597656 40.261719 L 22.597656 46.6875 " fill-opacity="1" fill-rule="nonzero"/><g clip-path="url(#f667499b1d)"><path fill="#f9a21e" d="M 15.542969 49.015625 L 21.542969 49.015625 L 21.542969 25.222656 L 15.542969 25.222656 L 15.542969 49.015625 " fill-opacity="1" fill-rule="nonzero"/></g><path fill="#fde3b7" d="M 16.640625 45.152344 L 20.535156 45.152344 L 20.535156 44.277344 L 16.640625 44.277344 L 16.640625 45.152344 " fill-opacity="1" fill-rule="nonzero"/><path fill="#fde3b7" d="M 16.640625 47.125 L 20.535156 47.125 L 20.535156 46.25 L 16.640625 46.25 L 16.640625 47.125 " fill-opacity="1" fill-rule="nonzero"/><path fill="#fde3b7" d="M 16.640625 29.65625 L 20.535156 29.65625 L 20.535156 27.4375 L 16.640625 27.4375 L 16.640625 29.65625 " fill-opacity="1" fill-rule="nonzero"/><path fill="#fde3b7" d="M 17.097656 33.753906 C 17.097656 34.585938 17.765625 35.257812 18.585938 35.257812 C 19.410156 35.257812 20.078125 34.585938 20.078125 33.753906 C 20.078125 32.925781 19.410156 32.253906 18.585938 32.253906 C 17.765625 32.253906 17.097656 32.925781 17.097656 33.753906 " fill-opacity="1" fill-rule="nonzero"/><g clip-path="url(#3753d37919)"><path fill="#f47025" d="M 13.179688 50.84375 L 29.90625 50.84375 L 29.90625 48.761719 L 13.179688 48.761719 L 13.179688 50.84375 " fill-opacity="1" fill-rule="nonzero"/></g><g clip-path="url(#0a9964c4e9)"><path fill="#0cafcd" d="M 28.542969 58.566406 C 28.542969 59.089844 28.441406 59.589844 28.242188 60.074219 C 28.042969 60.558594 27.757812 60.984375 27.390625 61.351562 C 27.019531 61.722656 26.59375 62.007812 26.109375 62.207031 C 25.628906 62.40625 25.125 62.507812 24.601562 62.507812 C 24.078125 62.507812 23.578125 62.40625 23.09375 62.207031 C 22.609375 62.007812 22.183594 61.722656 21.816406 61.351562 C 21.445312 60.984375 21.160156 60.558594 20.960938 60.074219 C 20.761719 59.589844 20.660156 59.089844 20.660156 58.566406 C 20.660156 58.042969 20.761719 57.539062 20.960938 57.058594 C 21.160156 56.574219 21.445312 56.148438 21.816406 55.777344 C 22.183594 55.410156 22.609375 55.125 23.09375 54.925781 C 23.578125 54.722656 24.078125 54.625 24.601562 54.625 C 25.125 54.625 25.628906 54.722656 26.109375 54.925781 C 26.59375 55.125 27.019531 55.410156 27.390625 55.777344 C 27.757812 56.148438 28.042969 56.574219 28.242188 57.058594 C 28.441406 57.539062 28.542969 58.042969 28.542969 58.566406 Z M 28.542969 58.566406 " fill-opacity="1" fill-rule="nonzero"/></g><g clip-path="url(#45ba31a37a)"><path fill="#d5204a" d="M 52.707031 58.566406 C 52.707031 59.089844 52.609375 59.589844 52.40625 60.074219 C 52.207031 60.558594 51.921875 60.984375 51.554688 61.351562 C 51.183594 61.722656 50.757812 62.007812 50.273438 62.207031 C 49.792969 62.40625 49.289062 62.507812 48.765625 62.507812 C 48.246094 62.507812 47.742188 62.40625 47.257812 62.207031 C 46.777344 62.007812 46.347656 61.722656 45.980469 61.351562 C 45.609375 60.984375 45.324219 60.558594 45.125 60.074219 C 44.925781 59.589844 44.824219 59.089844 44.824219 58.566406 C 44.824219 58.042969 44.925781 57.539062 45.125 57.058594 C 45.324219 56.574219 45.609375 56.148438 45.980469 55.777344 C 46.347656 55.410156 46.777344 55.125 47.257812 54.925781 C 47.742188 54.722656 48.246094 54.625 48.765625 54.625 C 49.289062 54.625 49.792969 54.722656 50.273438 54.925781 C 50.757812 55.125 51.183594 55.410156 51.554688 55.777344 C 51.921875 56.148438 52.207031 56.574219 52.40625 57.058594 C 52.609375 57.539062 52.707031 58.042969 52.707031 58.566406 Z M 52.707031 58.566406 " fill-opacity="1" fill-rule="nonzero"/></g><g fill="#231f20" fill-opacity="1"><g transform="translate(72.448683, 37.791852)"><g><path d="M 2.3125 -13.046875 L 0.765625 -13.421875 L 0.984375 -14.703125 L 7.046875 -14.703125 C 8.679688 -14.703125 9.941406 -14.363281 10.828125 -13.6875 C 11.722656 -13.019531 12.171875 -12.03125 12.171875 -10.71875 C 12.171875 -9.851562 11.960938 -9.109375 11.546875 -8.484375 C 11.128906 -7.867188 10.523438 -7.375 9.734375 -7 L 9.671875 -6.796875 L 12.40625 -1.65625 L 13.75 -1.28125 L 13.53125 0 L 10.171875 0 L 6.796875 -6.421875 L 5.578125 -6.421875 L 5.578125 -1.65625 L 7.109375 -1.28125 L 6.90625 0 L 0.984375 0 L 0.765625 -1.28125 L 2.3125 -1.65625 Z M 5.578125 -13.078125 L 5.578125 -8.046875 L 6.359375 -8.046875 C 6.867188 -8.046875 7.3125 -8.066406 7.6875 -8.109375 C 8.0625 -8.160156 8.359375 -8.234375 8.578125 -8.328125 C 8.671875 -8.628906 8.738281 -8.972656 8.78125 -9.359375 C 8.832031 -9.742188 8.859375 -10.132812 8.859375 -10.53125 C 8.859375 -11.507812 8.632812 -12.175781 8.1875 -12.53125 C 7.738281 -12.894531 7.050781 -13.078125 6.125 -13.078125 Z M 5.578125 -13.078125 "/></g></g></g><g fill="#231f20" fill-opacity="1"><g transform="translate(86.363994, 37.791852)"><g><path d="M 5.578125 -6.875 L 5.578125 -1.625 L 9.9375 -1.625 L 10.828125 -3.71875 L 12.28125 -3.46875 L 12.03125 0 L 0.984375 0 L 0.765625 -1.28125 L 2.3125 -1.65625 L 2.3125 -13.046875 L 0.765625 -13.421875 L 0.984375 -14.703125 L 11.703125 -14.703125 L 11.96875 -11.21875 L 10.515625 -10.984375 L 9.609375 -13.078125 L 5.578125 -13.078125 L 5.578125 -8.5 L 8.6875 -8.5 L 9.0625 -9.71875 L 10.359375 -9.5 L 10.359375 -5.859375 L 9.0625 -5.65625 L 8.6875 -6.875 Z M 5.578125 -6.875 "/></g></g></g><g fill="#231f20" fill-opacity="1"><g transform="translate(99.432003, 37.791852)"><g><path d="M 2.296875 -13.046875 L 0.734375 -13.421875 L 0.953125 -14.703125 L 6.609375 -14.703125 L 13.03125 -2.734375 L 13.21875 -2.734375 L 13.21875 -13.046875 L 11.640625 -13.421875 L 11.859375 -14.703125 L 16.71875 -14.703125 L 16.9375 -13.421875 L 15.390625 -13.046875 L 15.390625 0 L 11.0625 0 L 4.640625 -11.953125 L 4.46875 -11.953125 L 4.46875 -1.65625 L 6.21875 -1.28125 L 6.015625 0 L 0.953125 0 L 0.734375 -1.28125 L 2.296875 -1.65625 Z M 2.296875 -13.046875 "/></g></g></g><g fill="#231f20" fill-opacity="1"><g transform="translate(116.584443, 37.791852)"><g><path d="M 4.9375 -13.078125 L 2.375 -13.078125 L 1.703125 -11.234375 L 0.09375 -11.328125 L 0.25 -14.703125 L 12.875 -14.703125 L 13.03125 -11.328125 L 11.421875 -11.234375 L 10.734375 -13.078125 L 8.1875 -13.078125 L 8.1875 -1.65625 L 9.75 -1.28125 L 9.53125 0 L 3.59375 0 L 3.375 -1.28125 L 4.9375 -1.65625 Z M 4.9375 -13.078125 "/></g></g></g><g fill="#231f20" fill-opacity="1"><g transform="translate(129.695904, 37.791852)"><g><path d="M -0.28125 -1.28125 L 0.796875 -1.59375 L 5.515625 -14.703125 L 8.359375 -14.703125 L 12.96875 -1.59375 L 14.03125 -1.28125 L 13.8125 0 L 8.453125 0 L 8.234375 -1.28125 L 9.671875 -1.59375 L 8.78125 -4.1875 L 3.859375 -4.1875 L 2.9375 -1.59375 L 4.375 -1.28125 L 4.15625 0 L -0.0625 0 Z M 4.40625 -5.8125 L 8.234375 -5.8125 L 6.4375 -11.109375 L 6.265625 -11.109375 Z M 4.40625 -5.8125 "/></g></g></g><g fill="#231f20" fill-opacity="1"><g transform="translate(143.448272, 37.791852)"><g><path d="M 2.296875 -13.046875 L 0.734375 -13.421875 L 0.953125 -14.703125 L 6.875 -14.703125 L 7.09375 -13.421875 L 5.546875 -13.046875 L 5.546875 -1.625 L 8.4375 -1.625 L 9.34375 -3.71875 L 11.015625 -3.484375 L 10.75 0 L 0.953125 0 L 0.734375 -1.28125 L 2.296875 -1.65625 Z M 2.296875 -13.046875 "/></g></g></g><g fill="#d5204a" fill-opacity="1"><g transform="translate(73.843086, 49.451156)"><g><path d="M 1.296875 -7.34375 L 0.421875 -7.5625 L 0.546875 -8.28125 L 3.96875 -8.28125 C 4.882812 -8.28125 5.59375 -8.085938 6.09375 -7.703125 C 6.601562 -7.328125 6.859375 -6.773438 6.859375 -6.046875 C 6.859375 -5.554688 6.738281 -5.132812 6.5 -4.78125 C 6.269531 -4.4375 5.929688 -4.15625 5.484375 -3.9375 L 5.453125 -3.828125 L 6.984375 -0.9375 L 7.734375 -0.71875 L 7.625 0 L 5.734375 0 L 3.828125 -3.609375 L 3.140625 -3.609375 L 3.140625 -0.9375 L 4 -0.71875 L 3.890625 0 L 0.546875 0 L 0.421875 -0.71875 L 1.296875 -0.9375 Z M 3.140625 -7.359375 L 3.140625 -4.53125 L 3.578125 -4.53125 C 3.867188 -4.53125 4.117188 -4.539062 4.328125 -4.5625 C 4.546875 -4.59375 4.710938 -4.632812 4.828125 -4.6875 C 4.878906 -4.851562 4.921875 -5.046875 4.953125 -5.265625 C 4.984375 -5.484375 5 -5.703125 5 -5.921875 C 5 -6.484375 4.867188 -6.863281 4.609375 -7.0625 C 4.359375 -7.257812 3.972656 -7.359375 3.453125 -7.359375 Z M 3.140625 -7.359375 "/></g></g></g><g fill="#d5204a" fill-opacity="1"><g transform="translate(83.007467, 49.451156)"><g><path d="M 3.140625 -3.875 L 3.140625 -0.90625 L 5.59375 -0.90625 L 6.09375 -2.09375 L 6.921875 -1.953125 L 6.78125 0 L 0.546875 0 L 0.421875 -0.71875 L 1.296875 -0.9375 L 1.296875 -7.34375 L 0.421875 -7.5625 L 0.546875 -8.28125 L 6.59375 -8.28125 L 6.734375 -6.328125 L 5.921875 -6.1875 L 5.421875 -7.359375 L 3.140625 -7.359375 L 3.140625 -4.78125 L 4.890625 -4.78125 L 5.109375 -5.46875 L 5.828125 -5.34375 L 5.828125 -3.296875 L 5.109375 -3.1875 L 4.890625 -3.875 Z M 3.140625 -3.875 "/></g></g></g><g fill="#d5204a" fill-opacity="1"><g transform="translate(91.694705, 49.451156)"><g><path d="M 1.296875 -7.34375 L 0.421875 -7.5625 L 0.53125 -8.28125 L 3.71875 -8.28125 L 7.34375 -1.546875 L 7.4375 -1.546875 L 7.4375 -7.34375 L 6.5625 -7.5625 L 6.6875 -8.28125 L 9.421875 -8.28125 L 9.546875 -7.5625 L 8.671875 -7.34375 L 8.671875 0 L 6.234375 0 L 2.609375 -6.734375 L 2.515625 -6.734375 L 2.515625 -0.9375 L 3.5 -0.71875 L 3.390625 0 L 0.53125 0 L 0.421875 -0.71875 L 1.296875 -0.9375 Z M 1.296875 -7.34375 "/></g></g></g><g fill="#d5204a" fill-opacity="1"><g transform="translate(102.682015, 49.451156)"><g><path d="M 2.78125 -7.359375 L 1.34375 -7.359375 L 0.953125 -6.328125 L 0.046875 -6.375 L 0.140625 -8.28125 L 7.25 -8.28125 L 7.34375 -6.375 L 6.4375 -6.328125 L 6.046875 -7.359375 L 4.609375 -7.359375 L 4.609375 -0.9375 L 5.484375 -0.71875 L 5.359375 0 L 2.03125 0 L 1.90625 -0.71875 L 2.78125 -0.9375 Z M 2.78125 -7.359375 "/></g></g></g><g fill="#d5204a" fill-opacity="1"><g transform="translate(111.393723, 49.451156)"><g><path d="M 0.609375 -0.609375 C 0.609375 -0.773438 0.628906 -0.929688 0.671875 -1.078125 C 0.710938 -1.234375 0.765625 -1.367188 0.828125 -1.484375 C 0.898438 -1.609375 0.976562 -1.703125 1.0625 -1.765625 C 1.15625 -1.828125 1.253906 -1.859375 1.359375 -1.859375 C 1.523438 -1.859375 1.6875 -1.835938 1.84375 -1.796875 C 2 -1.765625 2.128906 -1.710938 2.234375 -1.640625 C 2.347656 -1.578125 2.4375 -1.5 2.5 -1.40625 C 2.570312 -1.3125 2.609375 -1.210938 2.609375 -1.109375 C 2.609375 -0.941406 2.585938 -0.785156 2.546875 -0.640625 C 2.503906 -0.492188 2.445312 -0.359375 2.375 -0.234375 C 2.3125 -0.117188 2.234375 -0.03125 2.140625 0.03125 C 2.054688 0.101562 1.960938 0.140625 1.859375 0.140625 C 1.679688 0.140625 1.515625 0.117188 1.359375 0.078125 C 1.210938 0.0351562 1.082031 -0.015625 0.96875 -0.078125 C 0.863281 -0.148438 0.773438 -0.226562 0.703125 -0.3125 C 0.640625 -0.40625 0.609375 -0.503906 0.609375 -0.609375 Z M 0.609375 -0.609375 "/></g></g></g><g fill="#d5204a" fill-opacity="1"><g transform="translate(116.184296, 49.451156)"><g/></g></g><g fill="#d5204a" fill-opacity="1"><g transform="translate(120.876993, 49.451156)"><g><path d="M 1.296875 -7.34375 L 0.421875 -7.5625 L 0.546875 -8.28125 L 3.96875 -8.28125 C 4.882812 -8.28125 5.59375 -8.085938 6.09375 -7.703125 C 6.601562 -7.328125 6.859375 -6.773438 6.859375 -6.046875 C 6.859375 -5.554688 6.738281 -5.132812 6.5 -4.78125 C 6.269531 -4.4375 5.929688 -4.15625 5.484375 -3.9375 L 5.453125 -3.828125 L 6.984375 -0.9375 L 7.734375 -0.71875 L 7.625 0 L 5.734375 0 L 3.828125 -3.609375 L 3.140625 -3.609375 L 3.140625 -0.9375 L 4 -0.71875 L 3.890625 0 L 0.546875 0 L 0.421875 -0.71875 L 1.296875 -0.9375 Z M 3.140625 -7.359375 L 3.140625 -4.53125 L 3.578125 -4.53125 C 3.867188 -4.53125 4.117188 -4.539062 4.328125 -4.5625 C 4.546875 -4.59375 4.710938 -4.632812 4.828125 -4.6875 C 4.878906 -4.851562 4.921875 -5.046875 4.953125 -5.265625 C 4.984375 -5.484375 5 -5.703125 5 -5.921875 C 5 -6.484375 4.867188 -6.863281 4.609375 -7.0625 C 4.359375 -7.257812 3.972656 -7.359375 3.453125 -7.359375 Z M 3.140625 -7.359375 "/></g></g></g><g fill="#d5204a" fill-opacity="1"><g transform="translate(130.041374, 49.451156)"><g><path d="M 3.140625 -3.875 L 3.140625 -0.90625 L 5.59375 -0.90625 L 6.09375 -2.09375 L 6.921875 -1.953125 L 6.78125 0 L 0.546875 0 L 0.421875 -0.71875 L 1.296875 -0.9375 L 1.296875 -7.34375 L 0.421875 -7.5625 L 0.546875 -8.28125 L 6.59375 -8.28125 L 6.734375 -6.328125 L 5.921875 -6.1875 L 5.421875 -7.359375 L 3.140625 -7.359375 L 3.140625 -4.78125 L 4.890625 -4.78125 L 5.109375 -5.46875 L 5.828125 -5.34375 L 5.828125 -3.296875 L 5.109375 -3.1875 L 4.890625 -3.875 Z M 3.140625 -3.875 "/></g></g></g><g fill="#d5204a" fill-opacity="1"><g transform="translate(138.728612, 49.451156)"><g><path d="M -0.15625 -0.71875 L 0.453125 -0.890625 L 3.109375 -8.28125 L 4.71875 -8.28125 L 7.296875 -0.890625 L 7.90625 -0.71875 L 7.78125 0 L 4.765625 0 L 4.640625 -0.71875 L 5.453125 -0.890625 L 4.9375 -2.359375 L 2.171875 -2.359375 L 1.65625 -0.890625 L 2.46875 -0.71875 L 2.34375 0 L -0.03125 0 Z M 2.484375 -3.28125 L 4.640625 -3.28125 L 3.625 -6.265625 L 3.53125 -6.265625 Z M 2.484375 -3.28125 "/></g></g></g><g fill="#d5204a" fill-opacity="1"><g transform="translate(147.801231, 49.451156)"><g><path d="M 1.296875 -7.34375 L 0.421875 -7.5625 L 0.546875 -8.28125 L 4.328125 -8.28125 C 5.617188 -8.28125 6.59375 -7.972656 7.25 -7.359375 C 7.914062 -6.742188 8.25 -5.851562 8.25 -4.6875 L 8.25 -4.203125 C 8.25 -2.910156 7.898438 -1.882812 7.203125 -1.125 C 6.503906 -0.375 5.566406 0 4.390625 0 L 0.546875 0 L 0.421875 -0.71875 L 1.296875 -0.9375 Z M 3.140625 -7.359375 L 3.140625 -0.90625 L 4.125 -0.90625 C 4.363281 -0.90625 4.613281 -0.921875 4.875 -0.953125 C 5.132812 -0.992188 5.367188 -1.039062 5.578125 -1.09375 C 5.796875 -1.382812 5.988281 -1.773438 6.15625 -2.265625 C 6.320312 -2.765625 6.40625 -3.28125 6.40625 -3.8125 L 6.40625 -4.375 C 6.40625 -5.394531 6.203125 -6.144531 5.796875 -6.625 C 5.390625 -7.113281 4.765625 -7.359375 3.921875 -7.359375 Z M 3.140625 -7.359375 "/></g></g></g><g fill="#d5204a" fill-opacity="1"><g transform="translate(157.864838, 49.451156)"><g><path d="M 0.609375 -0.609375 C 0.609375 -0.773438 0.628906 -0.929688 0.671875 -1.078125 C 0.710938 -1.234375 0.765625 -1.367188 0.828125 -1.484375 C 0.898438 -1.609375 0.976562 -1.703125 1.0625 -1.765625 C 1.15625 -1.828125 1.253906 -1.859375 1.359375 -1.859375 C 1.523438 -1.859375 1.6875 -1.835938 1.84375 -1.796875 C 2 -1.765625 2.128906 -1.710938 2.234375 -1.640625 C 2.347656 -1.578125 2.4375 -1.5 2.5 -1.40625 C 2.570312 -1.3125 2.609375 -1.210938 2.609375 -1.109375 C 2.609375 -0.941406 2.585938 -0.785156 2.546875 -0.640625 C 2.503906 -0.492188 2.445312 -0.359375 2.375 -0.234375 C 2.3125 -0.117188 2.234375 -0.03125 2.140625 0.03125 C 2.054688 0.101562 1.960938 0.140625 1.859375 0.140625 C 1.679688 0.140625 1.515625 0.117188 1.359375 0.078125 C 1.210938 0.0351562 1.082031 -0.015625 0.96875 -0.078125 C 0.863281 -0.148438 0.773438 -0.226562 0.703125 -0.3125 C 0.640625 -0.40625 0.609375 -0.503906 0.609375 -0.609375 Z M 0.609375 -0.609375 "/></g></g></g><g fill="#d5204a" fill-opacity="1"><g transform="translate(162.655407, 49.451156)"><g/></g></g><g fill="#d5204a" fill-opacity="1"><g transform="translate(167.3481, 49.451156)"><g><path d="M 1.296875 -7.34375 L 0.421875 -7.5625 L 0.546875 -8.28125 L 3.96875 -8.28125 C 4.882812 -8.28125 5.59375 -8.085938 6.09375 -7.703125 C 6.601562 -7.328125 6.859375 -6.773438 6.859375 -6.046875 C 6.859375 -5.554688 6.738281 -5.132812 6.5 -4.78125 C 6.269531 -4.4375 5.929688 -4.15625 5.484375 -3.9375 L 5.453125 -3.828125 L 6.984375 -0.9375 L 7.734375 -0.71875 L 7.625 0 L 5.734375 0 L 3.828125 -3.609375 L 3.140625 -3.609375 L 3.140625 -0.9375 L 4 -0.71875 L 3.890625 0 L 0.546875 0 L 0.421875 -0.71875 L 1.296875 -0.9375 Z M 3.140625 -7.359375 L 3.140625 -4.53125 L 3.578125 -4.53125 C 3.867188 -4.53125 4.117188 -4.539062 4.328125 -4.5625 C 4.546875 -4.59375 4.710938 -4.632812 4.828125 -4.6875 C 4.878906 -4.851562 4.921875 -5.046875 4.953125 -5.265625 C 4.984375 -5.484375 5 -5.703125 5 -5.921875 C 5 -6.484375 4.867188 -6.863281 4.609375 -7.0625 C 4.359375 -7.257812 3.972656 -7.359375 3.453125 -7.359375 Z M 3.140625 -7.359375 "/></g></g></g><g fill="#d5204a" fill-opacity="1"><g transform="translate(176.512477, 49.451156)"><g><path d="M 3.140625 -3.875 L 3.140625 -0.90625 L 5.59375 -0.90625 L 6.09375 -2.09375 L 6.921875 -1.953125 L 6.78125 0 L 0.546875 0 L 0.421875 -0.71875 L 1.296875 -0.9375 L 1.296875 -7.34375 L 0.421875 -7.5625 L 0.546875 -8.28125 L 6.59375 -8.28125 L 6.734375 -6.328125 L 5.921875 -6.1875 L 5.421875 -7.359375 L 3.140625 -7.359375 L 3.140625 -4.78125 L 4.890625 -4.78125 L 5.109375 -5.46875 L 5.828125 -5.34375 L 5.828125 -3.296875 L 5.109375 -3.1875 L 4.890625 -3.875 Z M 3.140625 -3.875 "/></g></g></g><g fill="#d5204a" fill-opacity="1"><g transform="translate(185.199711, 49.451156)"><g><path d="M 1.296875 -7.34375 L 0.421875 -7.5625 L 0.546875 -8.28125 L 4.0625 -8.28125 C 5.070312 -8.28125 5.828125 -8.09375 6.328125 -7.71875 C 6.828125 -7.351562 7.078125 -6.8125 7.078125 -6.09375 C 7.078125 -5.320312 6.804688 -4.710938 6.265625 -4.265625 C 5.734375 -3.828125 5.046875 -3.609375 4.203125 -3.609375 L 3.140625 -3.609375 L 3.140625 -0.9375 L 4.4375 -0.71875 L 4.3125 0 L 0.546875 0 L 0.421875 -0.71875 L 1.296875 -0.9375 Z M 3.140625 -7.359375 L 3.140625 -4.53125 L 3.8125 -4.53125 C 4.050781 -4.53125 4.285156 -4.546875 4.515625 -4.578125 C 4.742188 -4.609375 4.921875 -4.648438 5.046875 -4.703125 C 5.109375 -4.859375 5.148438 -5.046875 5.171875 -5.265625 C 5.203125 -5.492188 5.21875 -5.710938 5.21875 -5.921875 C 5.21875 -6.410156 5.082031 -6.769531 4.8125 -7 C 4.539062 -7.238281 4.144531 -7.359375 3.625 -7.359375 Z M 3.140625 -7.359375 "/></g></g></g><g fill="#d5204a" fill-opacity="1"><g transform="translate(193.660608, 49.451156)"><g><path d="M 3.140625 -3.875 L 3.140625 -0.90625 L 5.59375 -0.90625 L 6.09375 -2.09375 L 6.921875 -1.953125 L 6.78125 0 L 0.546875 0 L 0.421875 -0.71875 L 1.296875 -0.9375 L 1.296875 -7.34375 L 0.421875 -7.5625 L 0.546875 -8.28125 L 6.59375 -8.28125 L 6.734375 -6.328125 L 5.921875 -6.1875 L 5.421875 -7.359375 L 3.140625 -7.359375 L 3.140625 -4.78125 L 4.890625 -4.78125 L 5.109375 -5.46875 L 5.828125 -5.34375 L 5.828125 -3.296875 L 5.109375 -3.1875 L 4.890625 -3.875 Z M 3.140625 -3.875 "/></g></g></g><g fill="#d5204a" fill-opacity="1"><g transform="translate(202.347842, 49.451156)"><g><path d="M -0.15625 -0.71875 L 0.453125 -0.890625 L 3.109375 -8.28125 L 4.71875 -8.28125 L 7.296875 -0.890625 L 7.90625 -0.71875 L 7.78125 0 L 4.765625 0 L 4.640625 -0.71875 L 5.453125 -0.890625 L 4.9375 -2.359375 L 2.171875 -2.359375 L 1.65625 -0.890625 L 2.46875 -0.71875 L 2.34375 0 L -0.03125 0 Z M 2.484375 -3.28125 L 4.640625 -3.28125 L 3.625 -6.265625 L 3.53125 -6.265625 Z M 2.484375 -3.28125 "/></g></g></g><g fill="#d5204a" fill-opacity="1"><g transform="translate(211.42046, 49.451156)"><g><path d="M 2.78125 -7.359375 L 1.34375 -7.359375 L 0.953125 -6.328125 L 0.046875 -6.375 L 0.140625 -8.28125 L 7.25 -8.28125 L 7.34375 -6.375 L 6.4375 -6.328125 L 6.046875 -7.359375 L 4.609375 -7.359375 L 4.609375 -0.9375 L 5.484375 -0.71875 L 5.359375 0 L 2.03125 0 L 1.90625 -0.71875 L 2.78125 -0.9375 Z M 2.78125 -7.359375 "/></g></g></g><g fill="#004aad" fill-opacity="1"><g transform="translate(159.959673, 37.791852)"><g><path d="M 2.3125 -13.046875 L 0.765625 -13.421875 L 0.984375 -14.703125 L 7.15625 -14.703125 C 8.695312 -14.703125 9.898438 -14.410156 10.765625 -13.828125 C 11.628906 -13.242188 12.0625 -12.40625 12.0625 -11.3125 C 12.0625 -10.5625 11.828125 -9.878906 11.359375 -9.265625 C 10.898438 -8.660156 10.28125 -8.179688 9.5 -7.828125 L 9.515625 -7.65625 C 10.492188 -7.488281 11.265625 -7.117188 11.828125 -6.546875 C 12.398438 -5.972656 12.6875 -5.25 12.6875 -4.375 C 12.6875 -3.0625 12.21875 -2.003906 11.28125 -1.203125 C 10.34375 -0.398438 9.109375 0 7.578125 0 L 0.984375 0 L 0.765625 -1.28125 L 2.3125 -1.65625 Z M 5.578125 -6.828125 L 5.578125 -1.625 L 6.515625 -1.625 C 6.953125 -1.625 7.390625 -1.640625 7.828125 -1.671875 C 8.265625 -1.710938 8.691406 -1.785156 9.109375 -1.890625 C 9.203125 -2.179688 9.28125 -2.539062 9.34375 -2.96875 C 9.40625 -3.40625 9.4375 -3.835938 9.4375 -4.265625 C 9.4375 -5.078125 9.1875 -5.707031 8.6875 -6.15625 C 8.195312 -6.601562 7.535156 -6.828125 6.703125 -6.828125 Z M 5.578125 -13.078125 L 5.578125 -8.4375 L 6.453125 -8.4375 C 6.773438 -8.4375 7.109375 -8.460938 7.453125 -8.515625 C 7.796875 -8.566406 8.125 -8.640625 8.4375 -8.734375 C 8.53125 -9.003906 8.613281 -9.335938 8.6875 -9.734375 C 8.757812 -10.128906 8.796875 -10.515625 8.796875 -10.890625 C 8.796875 -11.679688 8.597656 -12.242188 8.203125 -12.578125 C 7.804688 -12.910156 7.164062 -13.078125 6.28125 -13.078125 Z M 5.578125 -13.078125 "/></g></g></g><g fill="#004aad" fill-opacity="1"><g transform="translate(173.36443, 37.791852)"><g><path d="M 4.828125 -5.9375 C 4.828125 -4.425781 5.113281 -3.285156 5.6875 -2.515625 C 6.257812 -1.753906 7.066406 -1.375 8.109375 -1.375 C 8.640625 -1.375 9.132812 -1.429688 9.59375 -1.546875 C 10.0625 -1.671875 10.429688 -1.816406 10.703125 -1.984375 C 10.941406 -2.429688 11.140625 -2.976562 11.296875 -3.625 C 11.460938 -4.28125 11.546875 -4.957031 11.546875 -5.65625 L 11.546875 -13.046875 L 10 -13.421875 L 10.21875 -14.703125 L 14.953125 -14.703125 L 15.171875 -13.421875 L 13.625 -13.046875 L 13.625 -5.90625 C 13.625 -3.832031 13.128906 -2.289062 12.140625 -1.28125 C 11.160156 -0.269531 9.640625 0.234375 7.578125 0.234375 C 5.503906 0.234375 3.984375 -0.226562 3.015625 -1.15625 C 2.046875 -2.09375 1.5625 -3.484375 1.5625 -5.328125 L 1.5625 -13.046875 L 0 -13.421875 L 0.21875 -14.703125 L 6.15625 -14.703125 L 6.359375 -13.421875 L 4.828125 -13.046875 Z M 4.828125 -5.9375 "/></g></g></g><g fill="#004aad" fill-opacity="1"><g transform="translate(188.572421, 37.791852)"><g><path d="M 0.703125 -1.28125 L 2.25 -1.65625 L 2.25 -13.046875 L 0.703125 -13.421875 L 0.90625 -14.703125 L 6.828125 -14.703125 L 7.046875 -13.421875 L 5.515625 -13.046875 L 5.515625 -7.96875 L 5.65625 -7.90625 L 11.125 -13.1875 L 9.9375 -13.40625 L 10.15625 -14.703125 L 15.03125 -14.703125 L 15.25 -13.421875 L 13.703125 -13.03125 L 9.390625 -8.921875 L 14.203125 -1.59375 L 15.46875 -1.28125 L 15.25 0 L 11.515625 0 L 7.125 -6.75 L 5.515625 -5.21875 L 5.515625 -1.65625 L 7.046875 -1.28125 L 6.828125 0 L 0.90625 0 Z M 0.703125 -1.28125 "/></g></g></g><g fill="#004aad" fill-opacity="1"><g transform="translate(203.715234, 37.791852)"><g><path d="M 4.828125 -5.9375 C 4.828125 -4.425781 5.113281 -3.285156 5.6875 -2.515625 C 6.257812 -1.753906 7.066406 -1.375 8.109375 -1.375 C 8.640625 -1.375 9.132812 -1.429688 9.59375 -1.546875 C 10.0625 -1.671875 10.429688 -1.816406 10.703125 -1.984375 C 10.941406 -2.429688 11.140625 -2.976562 11.296875 -3.625 C 11.460938 -4.28125 11.546875 -4.957031 11.546875 -5.65625 L 11.546875 -13.046875 L 10 -13.421875 L 10.21875 -14.703125 L 14.953125 -14.703125 L 15.171875 -13.421875 L 13.625 -13.046875 L 13.625 -5.90625 C 13.625 -3.832031 13.128906 -2.289062 12.140625 -1.28125 C 11.160156 -0.269531 9.640625 0.234375 7.578125 0.234375 C 5.503906 0.234375 3.984375 -0.226562 3.015625 -1.15625 C 2.046875 -2.09375 1.5625 -3.484375 1.5625 -5.328125 L 1.5625 -13.046875 L 0 -13.421875 L 0.21875 -14.703125 L 6.15625 -14.703125 L 6.359375 -13.421875 L 4.828125 -13.046875 Z M 4.828125 -5.9375 "/></g></g></g></svg>